<?xml version="1.0" encoding="utf-8"?>
<!-- Generator: Adobe Illustrator 21.1.0, SVG Export Plug-In . SVG Version: 6.00 Build 0)  -->
<svg version="1.1" id="Layer_1" xmlns="http://www.w3.org/2000/svg" xmlns:xlink="http://www.w3.org/1999/xlink" x="0px" y="0px"
	 viewBox="0 0 345.6 180" style="enable-background:new 0 0 345.6 180;" xml:space="preserve">
<style type="text/css">
	.st0{fill:#383A37;}
</style>
<g>
	<path class="st0" d="M260.1,19.3l10.8,15.4c1,1.4,0.7,3.4-0.7,4.4l-5.1,3.6l-14.4-20.6l5.1-3.6C257.1,17.5,259.1,17.9,260.1,19.3z"
		/>
	<path class="st0" d="M112.1,34.2C101.8,28.2,91.4,22,80.3,19c-1,0-1.9-0.1-2.9-0.1c-2.2,1.4-2.4,2.8-0.4,5.8
		c1.5,2.2,3.3,4.4,5.2,6.5c6.1,6.5,13,12.4,20,18.2c15.2,12.5,31,24.4,47,35.9l20.3-14.2C150.7,58.2,131.7,45.7,112.1,34.2z"/>
	<path class="st0" d="M237.3,119.7c-5.5-2.5-10.6-3.3-15-2c-6.7,2-8.7,9.1-4.3,15.8c3.1,4.8,7.7,8,13.3,10c2.2,0.8,4.4,1.3,6.6,1.9
		c7.7,2.1,14.9,5.7,21.6,11.1c1.6,1.3,3.2,2.7,5.2,4.4c0.2-2,0.6-3.6,0.6-5.3C265.1,141.4,254.8,127.7,237.3,119.7z"/>
	<path class="st0" d="M186.4,106.3c-1.1,1.6-0.2,3.4,2.3,4.8c6.4,3.7,12.8,7.3,19.2,11c1.9,1.1,3.3,1,4.2-0.2c2.1-3,4.2-5.9,6.3-8.9
		c0.8-1.1,0.4-2.5-1.2-3.9c-5.4-4.6-10.8-9.2-16.3-13.7l-13.4,9.4C187.1,105.2,186.8,105.8,186.4,106.3z"/>
	<polygon class="st0" points="247.7,24.1 247.7,24.1 175.1,75 154.6,89.3 118.1,114.9 92,133.2 106.3,153.7 132.5,135.4 
		176.8,104.4 188.5,96.2 262.1,44.7 262.1,44.7 	"/>
	<polygon class="st0" points="85.2,137.9 89.1,135.2 103.5,155.7 99.6,158.5 72.8,161.9 	"/>
</g>
</svg>
