<svg id="Layer_1" data-name="Layer 1" xmlns="http://www.w3.org/2000/svg" viewBox="0 0 157.25 89.01"><defs><style>.cls-1{fill:#383a37;}</style></defs><title>design-icon</title><polygon class="cls-1" points="11.39 66.4 4.13 80.45 19.64 83.52 25.11 80.88 16.85 63.77 11.39 66.4"/><rect class="cls-1" x="21.63" y="33.93" width="125.25" height="19" transform="translate(-12.87 40.44) rotate(-25.76)"/><rect class="cls-1" x="144.59" y="2.04" width="11.48" height="19" transform="translate(7.55 65.99) rotate(-25.76)"/><path class="cls-1" d="M69.53,32.25l2.64,1.28-.47,1,4.69-2.26L10.63.49,2.37,17.61,54.54,42.78l12.92-6.24ZM16.7,16l-2.64-1.28,3.6-7.47.9.43,1.74.84Zm7.93.14L22,14.82l2.16-4.48,2.64,1.28Zm5,6.12L27,20.94l3.6-7.47,2.64,1.28Zm7.93.14L35,21.08l2.16-4.48,2.64,1.28Zm5,6.12L40,27.2l3.6-7.47L46.24,21Zm7.93.14-2.64-1.28,2.16-4.48,2.64,1.28Zm5,6.12L53,33.46,56.56,26l2.64,1.28Zm5.28-1.14L63,29.12l2.64,1.28-2.16,4.48Z" transform="translate(-2.37 -0.49)"/><path class="cls-1" d="M104.6,49.17l-2.16,4.48L99.8,52.37l.91-1.89-6.17,3,0,.05,0,0L85.6,57.77l65.77,31.74,8.26-17.11L107.46,47.22,104,48.89ZM147.35,69.8,150,71.08l-3.6,7.47-2.64-1.28Zm-6.48-3.13,2.64,1.28-2.16,4.48-2.64-1.28Zm-6.48-3.13L137,64.82l-3.6,7.47L130.77,71Zm-6.48-3.13,2.64,1.28-2.16,4.48-2.64-1.28Zm-6.48-3.13,2.64,1.28L120.45,66l-2.64-1.28Zm-6.48-3.13,2.64,1.28-2.16,4.48-2.64-1.28ZM108.44,51l2.64,1.28-3.6,7.47-2.64-1.28Z" transform="translate(-2.37 -0.49)"/></svg>