<?xml version="1.0" encoding="utf-8"?>
<!-- Generator: Adobe Illustrator 21.1.0, SVG Export Plug-In . SVG Version: 6.00 Build 0)  -->
<svg version="1.1" id="Layer_1" xmlns="http://www.w3.org/2000/svg" xmlns:xlink="http://www.w3.org/1999/xlink" x="0px" y="0px"
	 viewBox="0 0 800 200" style="enable-background:new 0 0 800 200;" xml:space="preserve">
<style type="text/css">
	.st0{fill:#3A3A39;}
	.st1{opacity:0.2;}
</style>
<g>
	<g>
		<path class="st0" d="M243.5,150.8l29.9,17.2v34.5l-29.8,17.2l-29.9-17.2V168L243.5,150.8 M243.5,149.7l-30.8,17.8V203l30.9,17.8
			l30.8-17.8v-35.6L243.5,149.7L243.5,149.7z"/>
	</g>
	<g class="st1">
		<path class="st0" d="M210.7,166.3L210.7,166.3L210.7,166.3z"/>
	</g>
	<g>
		<path class="st0" d="M309.2,150.8l29.9,17.2v34.5l-29.8,17.2l-29.9-17.2V168L309.2,150.8 M309.2,149.7l-30.8,17.8V203l30.9,17.8
			l30.8-17.8v-35.6L309.2,149.7L309.2,149.7z"/>
	</g>
	<g>
		<polygon class="st0" points="309.2,147.4 309.2,147.4 309.2,147.4 309.2,147.4 		"/>
	</g>
	<g>
		<ellipse class="st0" cx="309.2" cy="147.3" rx="0" ry="0"/>
	</g>
	<g>
		<path class="st0" d="M407.7,94l29.9,17.2v34.5l-29.8,17.2l-29.9-17.2v-34.5L407.7,94 M407.7,92.9l-30.8,17.8v35.6l30.9,17.8
			l30.8-17.8v-35.6L407.7,92.9L407.7,92.9z"/>
	</g>
	<g>
		<path class="st0" d="M473.4,94l29.9,17.2v34.5l-29.8,17.2l-29.9-17.2v-34.5L473.4,94 M473.4,92.9l-30.8,17.8v35.6l30.9,17.8
			l30.8-17.8v-35.6L473.4,92.9L473.4,92.9z"/>
	</g>
	<g>
		<path class="st0" d="M374.9,150.8l29.9,17.2v34.5L375,219.7l-29.9-17.2V168L374.9,150.8 M374.9,149.7l-30.8,17.8V203l30.9,17.8
			l30.8-17.8v-35.6L374.9,149.7L374.9,149.7z"/>
	</g>
	<g>
		<path class="st0" d="M506.3,37.2l29.9,17.2v34.5l-29.8,17.2l-29.9-17.2V54.4L506.3,37.2 M506.3,36l-30.8,17.8v35.6l30.9,17.8
			l30.8-17.8V53.8L506.3,36L506.3,36z"/>
	</g>
	<g>
		<path class="st0" d="M539.1,94l29.9,17.2v34.5l-29.8,17.2l-29.9-17.2v-34.5L539.1,94 M539.1,92.9l-30.8,17.8v35.6l30.9,17.8
			l30.8-17.8v-35.6L539.1,92.9L539.1,92.9z"/>
	</g>
	<g>
		<path class="st0" d="M473.5,166.3L473.5,166.3L473.5,166.3z"/>
	</g>
	<g>
		<path class="st0" d="M506.3,150.8l29.9,17.2v34.5l-29.8,17.2l-29.9-17.2V168L506.3,150.8 M506.3,149.7l-30.8,17.8V203l30.9,17.8
			l30.8-17.8v-35.6L506.3,149.7L506.3,149.7z"/>
	</g>
	<g>
		<path class="st0" d="M572,37.2l29.9,17.2v34.5l-29.8,17.2l-29.9-17.2V54.4L572,37.2 M572,36l-30.8,17.8v35.6l30.9,17.8l30.8-17.8
			V53.8L572,36L572,36z"/>
	</g>
	<g>
		<polygon class="st0" points="539.2,166.3 539.2,166.3 539.2,166.3 		"/>
	</g>
	<g>
		<path class="st0" d="M572,150.8l29.9,17.2v34.5l-29.8,17.2l-29.9-17.2V168L572,150.8 M572,149.7l-30.8,17.8V203l30.9,17.8
			l30.8-17.8v-35.6L572,149.7L572,149.7z"/>
	</g>
	<g>
		<path class="st0" d="M539.2,166.3L539.2,166.3L539.2,166.3z"/>
	</g>
	<g>
		<path class="st0" d="M604.8-19.6l29.9,17.2V32l-29.8,17.2L575,32V-2.5L604.8-19.6 M604.8-20.8L574-3v35.6l30.9,17.8l30.8-17.8V-3
			L604.8-20.8L604.8-20.8z"/>
	</g>
	<g>
		<path class="st0" d="M637.7,37.2l29.9,17.2v34.5l-29.8,17.2l-29.9-17.2V54.4L637.7,37.2 M637.7,36l-30.8,17.8v35.6l30.9,17.8
			l30.8-17.8V53.8L637.7,36L637.7,36z"/>
	</g>
	<g>
		<polygon class="st0" points="637.7,33.7 637.7,33.7 637.7,33.7 637.7,33.7 		"/>
	</g>
	<g>
		<ellipse class="st0" cx="637.6" cy="33.7" rx="0" ry="0"/>
	</g>
	<g>
		<path class="st0" d="M637.7,109.4L637.7,109.4L637.7,109.4z"/>
	</g>
	<g>
		<path class="st0" d="M670.5,94l29.9,17.2v34.5l-29.8,17.2l-29.9-17.2v-34.5L670.5,94 M670.5,92.9l-30.8,17.8v35.6l30.9,17.7
			l30.8-17.8v-35.6L670.5,92.9L670.5,92.9z"/>
	</g>
	<g>
		<path class="st0" d="M670.5-19.6l29.9,17.2V32l-29.8,17.2L640.7,32V-2.5L670.5-19.6 M670.5-20.8L639.7-3v35.6l30.9,17.8l30.8-17.8
			V-3L670.5-20.8L670.5-20.8z"/>
	</g>
	<g>
		<path class="st0" d="M736.2,94l29.9,17.2v34.5l-29.8,17.2l-29.9-17.2v-34.5L736.2,94 M736.2,92.9l-30.8,17.8v35.6l30.9,17.8
			l30.8-17.8v-35.6L736.2,92.9L736.2,92.9z"/>
	</g>
	<g>
		<path class="st0" d="M703.4,150.8l29.9,17.2v34.5l-29.8,17.2l-29.9-17.2V168L703.4,150.8 M703.4,149.7l-30.8,17.8V203l30.9,17.8
			l30.8-17.8v-35.6L703.4,149.7L703.4,149.7z"/>
	</g>
	<g>
		<path class="st0" d="M736.2-19.6l29.9,17.2V32l-29.8,17.2L706.4,32V-2.5L736.2-19.6 M736.2-20.8L705.4-3v35.6l30.9,17.8l30.8-17.8
			V-3L736.2-20.8L736.2-20.8z"/>
	</g>
	<g>
		<path class="st0" d="M769.1,37.2L799,54.4v34.5l-29.8,17.2l-29.9-17.2V54.4L769.1,37.2 M769.1,36l-30.8,17.8v35.6l30.9,17.8
			L800,89.4V53.8L769.1,36L769.1,36z"/>
	</g>
	<g>
		<path class="st0" d="M769.1,150.8L799,168v34.5l-29.8,17.2l-29.9-17.2V168L769.1,150.8 M769.1,149.7l-30.8,17.8V203l30.9,17.8
			L800,203v-35.6L769.1,149.7L769.1,149.7z"/>
	</g>
</g>
</svg>
