<?xml version="1.0" encoding="utf-8"?>
<!-- Generator: Adobe Illustrator 21.1.0, SVG Export Plug-In . SVG Version: 6.00 Build 0)  -->
<svg version="1.1" id="Layer_1" xmlns="http://www.w3.org/2000/svg" xmlns:xlink="http://www.w3.org/1999/xlink" x="0px" y="0px"
	 viewBox="0 0 1702 418" style="enable-background:new 0 0 1702 418;" xml:space="preserve">
<style type="text/css">
	.st0{fill:#FFC600;}
</style>
<title>navbar-logo</title>
<polygon class="st0" points="308.1,75 308.1,253.5 308.1,253.5 197.9,189.9 87.7,253.5 87.7,253.5 87.7,75 43.3,100.6 43.3,279.2 
	87.7,304.8 87.7,304.8 197.9,241.2 197.9,241.2 197.9,241.2 197.9,241.2 197.9,241.2 308.1,304.8 308.1,304.8 352.5,279.2 
	352.5,100.6 "/>
<path class="st0" d="M1585.7,75h-242.9v229.8h242.9l66.3-114.9L1585.7,75z M1560,260.4h-172.8v-141H1560l40.7,70.5L1560,260.4z"/>
<path class="st0" d="M1610.7,31.7h-311.2v316.4h311.2l91.3-158.2L1610.7,31.7z M1598.2,326.4h-277V53.4h277l78.8,136.5L1598.2,326.4
	z"/>
<path class="st0" d="M1218.9,278.1l-0.1-79.3l-15.3-8.9l15.3-8.9V99.6l-44.4-25.6H909.7v204.1l44.4,25.6v-91.6h220.3v93.8
	L1218.9,278.1z M954.1,167.7v-49.4h220.3v49.4H954.1z"/>
<path class="st0" d="M1186,30.6H866.4v272.5l131,75.6V255.4h133.7v125.5l131-75.6V74.6L1186,30.6z M975.8,233.8v107.5l-87.7-50.6
	V52.3h292.1l60.2,34.8v203.1l-87.7,53.2V233.8H975.8z"/>
<path class="st0" d="M741.3,73.9H520.9l-44.4,25.6v178.5l44.4,25.6v-91.6h220.4v91.6l44.4-25.6V99.6L741.3,73.9z M741.3,167.7H520.9
	v-49.4h220.4V167.7z"/>
<path class="st0" d="M752.9,30.6H509.3l-76.1,43.9v228.5l131,75.6V255.4H698v123.3l131-75.6V74.6L752.9,30.6z M807.4,290.6
	l-87.7,50.6V233.8H542.6v107.5l-87.7-50.6V87.1l60.2-34.8h232l60.2,34.8L807.4,290.6z"/>
<path class="st0" d="M264.8,0v178.5l-66.9-38.6L131,178.5V0L0,75.6v228.5L197.9,418l197.9-113.9V75.6L264.8,0z M374.2,291.7
	L197.9,393L21.7,291.7V88.1l87.7-50.6V216l88.6-51.1l88.5,51.1V37.5l87.7,50.6L374.2,291.7z"/>
<polygon class="st0" points="231.3,285.4 197.9,266.2 164.5,285.4 197.9,304.6 "/>
<polygon class="st0" points="253.1,336.3 286.3,317.2 252.9,297.9 219.6,317.1 "/>
<polygon class="st0" points="142.9,297.9 109.5,317.2 142.8,336.3 176.2,317.1 "/>
<polygon class="st0" points="164.5,348.8 197.9,368.1 231.3,348.8 197.9,329.6 "/>
</svg>
