<?xml version="1.0" encoding="utf-8"?>
<!-- Generator: Adobe Illustrator 21.1.0, SVG Export Plug-In . SVG Version: 6.00 Build 0)  -->
<svg version="1.1" id="Layer_1" xmlns="http://www.w3.org/2000/svg" xmlns:xlink="http://www.w3.org/1999/xlink" x="0px" y="0px"
	 viewBox="0 0 272.7 288" style="enable-background:new 0 0 272.7 288;" xml:space="preserve">
<style type="text/css">
	.st0{fill:#FFC600;}
</style>
<title>navbar-icon</title>
<polygon class="st0" points="212.3,51.7 212.3,174.7 212.3,174.7 136.4,130.8 60.4,174.7 60.4,174.7 60.4,51.7 29.8,69.3 
	29.8,192.3 60.4,210 60.4,210 136.4,166.1 136.4,166.1 136.4,166.1 136.4,166.1 136.4,166.1 212.3,210 212.3,210 242.9,192.3 
	242.9,69.3 "/>
<path class="st0" d="M182.4,0v123l-46.1-26.6l-46,26.6V0L0,52.1v157.4L136.4,288l136.4-78.4V52.1L182.4,0z M257.8,200.9l-121.4,69.9
	L14.9,200.9V60.7l60.4-34.9v123l61-35.2l61,35.2v-123l60.4,34.9L257.8,200.9z"/>
<polygon class="st0" points="159.3,196.6 136.4,183.4 113.4,196.6 136.4,209.9 "/>
<polygon class="st0" points="174.3,231.7 197.3,218.5 174.3,205.3 151.3,218.5 "/>
<polygon class="st0" points="98.4,205.3 75.4,218.5 98.4,231.7 121.4,218.5 "/>
<polygon class="st0" points="113.3,240.3 136.4,253.6 159.4,240.3 136.4,227.1 "/>
</svg>
