<svg id="Layer_1" data-name="Layer 1" xmlns="http://www.w3.org/2000/svg" viewBox="0 0 144 90"><defs><style>.cls-1{fill:#383a37;}</style></defs><title>ux-icon</title><polygon class="cls-1" points="112.63 43.97 142.71 0.07 120.22 0.07 120.22 0.07 101.19 29.21 82.3 0.07 82.29 0.07 82.29 34.04 89.24 44.23 82.14 54.56 75.73 63.91 75.73 63.91 62.01 83.9 62.01 83.9 57.87 89.93 61.5 89.93 80.37 89.93 90.52 74.53 100.68 59.12 110.77 74.53 120.86 89.93 144 89.93 144 89.93 112.63 43.97"/><path class="cls-1" d="M86.32,50V0H66.8V50.76q0,8.64-3.35,13.77-.39.59-.82,1.14t-.91,1a16,16,0,0,1-2.35,2,16.45,16.45,0,0,1-3.71,2,19.19,19.19,0,0,1-2.78.81q-1,.21-2,.33T48.77,72l-1.11,0-1.11,0q-1.09,0-2.13-.17a21,21,0,0,1-3-.58L40.54,71a17.42,17.42,0,0,1-1.76-.69,16.32,16.32,0,0,1-1.64-.86,16,16,0,0,1-3.55-2.9Q28.52,61,28.52,50.13V0H9V50.63a59.6,59.6,0,0,0,1,11.31q.4,2.07,1,4a37.82,37.82,0,0,0,1.28,3.69q.36.88.76,1.73a31,31,0,0,0,2.77,4.73A28.9,28.9,0,0,0,18,78.85q.6.66,1.24,1.27Q29.54,90,47.41,90q2.22,0,4.33-.15t4.13-.46A45.11,45.11,0,0,0,62.1,88l.61-.89L86.27,52.77C86.3,51.86,86.32,50.94,86.32,50Z" transform="translate(-9)"/></svg>