<?xml version="1.0" encoding="utf-8"?>
<!-- Generator: Adobe Illustrator 21.1.0, SVG Export Plug-In . SVG Version: 6.00 Build 0)  -->
<svg version="1.1" id="Layer_1" xmlns="http://www.w3.org/2000/svg" xmlns:xlink="http://www.w3.org/1999/xlink" x="0px" y="0px"
	 viewBox="0 0 345.6 180" style="enable-background:new 0 0 345.6 180;" xml:space="preserve">
<style type="text/css">
	.st0{fill:#383A37;}
</style>
<g>
	<polygon class="st0" points="237.7,88.3 285.8,18 249.8,18 249.8,18 219.4,64.7 189.1,18 189.1,18 189.1,72.4 200.2,88.7 
		188.9,105.2 178.6,120.2 178.6,120.2 156.7,152.2 156.7,152.2 150,161.8 155.8,161.8 186,161.8 202.3,137.2 218.5,112.5 
		234.7,137.2 250.8,161.8 287.8,161.8 287.8,161.8 	"/>
	<path class="st0" d="M181.2,97.9V75V60.7V18v-0.1h-31.2v11.3v70c0,9.2-1.8,16.6-5.4,22c-0.4,0.6-0.8,1.2-1.3,1.8
		c-0.5,0.6-0.9,1.1-1.4,1.7c-1.2,1.2-2.4,2.3-3.8,3.2c-1.8,1.3-3.8,2.3-5.9,3.1c-1.4,0.5-2.9,1-4.4,1.3c-1,0.2-2.1,0.4-3.2,0.5
		c-1.1,0.1-2.2,0.2-3.4,0.3c-0.6,0-1.2,0-1.8,0c-0.6,0-1.2,0-1.8,0c-1.2,0-2.3-0.1-3.4-0.3c-1.7-0.2-3.2-0.5-4.7-0.9
		c-0.5-0.1-1-0.3-1.5-0.4c-1-0.3-1.9-0.7-2.8-1.1c-0.9-0.4-1.8-0.9-2.6-1.4c-2.1-1.3-4-2.8-5.7-4.6c-5.4-5.9-8.1-14.6-8.1-26.2V17.9
		H57.4v81c0,6.5,0.5,12.6,1.6,18.1c0.4,2.2,0.9,4.3,1.5,6.4c0.6,2,1.3,4,2.1,5.9c0.4,0.9,0.8,1.9,1.2,2.8c1.3,2.7,2.8,5.2,4.4,7.6
		c1.1,1.6,2.3,3,3.6,4.4c0.6,0.7,1.3,1.4,2,2c11,10.5,26,15.8,45,15.8c2.4,0,4.7-0.1,6.9-0.2c2.3-0.2,4.5-0.4,6.6-0.7
		c3.5-0.5,6.8-1.3,10-2.3l1-1.4l37.7-54.9C181.1,100.9,181.2,99.4,181.2,97.9z"/>
</g>
</svg>
